<?xml version="1.0" encoding="UTF-8"?>
<svg id="_レイヤー_2" data-name="レイヤー_2" xmlns="http://www.w3.org/2000/svg" viewBox="0 0 290.39 341.73">
  <defs>
    <style>
      .cls-1 {
        fill: #fff;
      }

      .cls-1, .cls-2 {
        stroke: #4d4d4d;
        stroke-miterlimit: 10;
        stroke-width: 6px;
      }

      .cls-3 {
        fill: #4d4d4d;
      }

      .cls-2 {
        fill: none;
      }
    </style>
  </defs>
  <g id="_レイヤー_1-2" data-name="レイヤー_1">
    <g>
      <g>
        <path class="cls-3" d="M229.57,6c5.28,0,10.26,1.09,14.81,3.24,11.78,5.56,19.73,17.79,22.38,34.44,2.79,17.48-.59,37.5-9.5,56.37-7.21,15.27-17.31,28.24-29.21,37.5-11.16,8.69-23.34,13.47-34.29,13.47-5.28,0-10.27-1.09-14.81-3.24-11.78-5.56-19.73-17.79-22.38-34.44-2.79-17.48.59-37.5,9.5-56.37,7.21-15.27,17.31-28.24,29.21-37.5,11.16-8.69,23.34-13.47,34.3-13.47h0M229.56,0c-25.08,0-53.23,21.17-68.93,54.41-19.48,41.26-12.43,85.49,15.75,98.8,5.47,2.58,11.33,3.81,17.38,3.81,25.08,0,53.23-21.17,68.93-54.41,19.48-41.26,12.43-85.49-15.75-98.8C241.47,1.23,235.61,0,229.56,0h0Z"/>
        <line class="cls-1" x1="186.83" y1="126.81" x2="230.17" y2="32.01"/>
      </g>
      <g>
        <path class="cls-3" d="M48.08,112.98c25.56,0,54.05,21.38,70.88,53.21,10.79,20.4,15.52,42.35,13.32,61.82-2.11,18.62-10.34,32.62-23.19,39.42-5.53,2.93-11.71,4.41-18.36,4.41-25.56,0-54.05-21.38-70.89-53.21-10.79-20.4-15.52-42.35-13.32-61.82,2.11-18.62,10.34-32.62,23.19-39.42,5.53-2.93,11.71-4.41,18.36-4.41h0M48.07,106.98c-7.45,0-14.62,1.64-21.17,5.11-30.3,16.03-35.84,64.99-12.37,109.35,18.4,34.78,49.16,56.41,76.19,56.41,7.45,0,14.62-1.64,21.17-5.11,30.3-16.03,35.84-64.99,12.37-109.35-18.4-34.78-49.16-56.41-76.19-56.41h0Z"/>
        <line class="cls-1" x1="95.55" y1="246.13" x2="40.68" y2="145.45"/>
      </g>
      <g>
        <path class="cls-2" d="M269.73,296.47c-47.46,56.7-108.23,39.95-108.23,39.95,0,0-20.72-64.58,20.28-113.57,30.85-36.85,99.83-29.92,99.83-29.92,0,0,18.96,66.69-11.89,103.54Z"/>
        <line class="cls-2" x1="180.54" y1="315.52" x2="251.5" y2="233.2"/>
        <line class="cls-2" x1="211.45" y1="227.29" x2="212.83" y2="273.53"/>
        <line class="cls-2" x1="254.54" y1="273.3" x2="212.83" y2="273.53"/>
        <line class="cls-2" x1="183.68" y1="265.9" x2="190.7" y2="303.73"/>
        <line class="cls-2" x1="226.34" y1="301.5" x2="190.7" y2="303.73"/>
      </g>
    </g>
  </g>
</svg>