<svg xmlns="http://www.w3.org/2000/svg" xmlns:xlink="http://www.w3.org/1999/xlink" width="47" height="47" viewBox="0 0 47 47">
  <defs>
    <clipPath id="clip-path">
      <rect id="長方形_20" data-name="長方形 20" width="47" height="47" transform="translate(431 77)" fill="#fff" stroke="#707070" stroke-width="1"/>
    </clipPath>
  </defs>
  <g id="マスクグループ_2" data-name="マスクグループ 2" transform="translate(-431 -77)" clip-path="url(#clip-path)">
    <g id="_レイヤー_2" transform="translate(431.009 81.369)">
      <g id="グループ_22" data-name="グループ 22">
        <ellipse id="楕円形_10" data-name="楕円形 10" cx="8.603" cy="7.82" rx="8.603" ry="7.82" transform="translate(0.62 16.051)" fill="#fff" stroke="#4d4d4d" stroke-linecap="round" stroke-miterlimit="10" stroke-width="1.241"/>
        <path id="パス_3" data-name="パス 3" d="M9.223,11.632H46.28m-37.057,0c0,11.075-2.81,27.053,18.528,27.048,21.257,0,18.528-15.392,18.528-26.467" fill="#fff" stroke="#4d4d4d" stroke-linecap="round" stroke-miterlimit="10" stroke-width="1.241"/>
        <path id="パス_4" data-name="パス 4" d="M13.87,16.051H41.63m-27.761,0c0,8.3-2.105,20.267,13.881,20.263,15.924,0,13.881-11.531,13.881-19.828" fill="#ccc" stroke="#4d4d4d" stroke-linecap="round" stroke-miterlimit="10" stroke-width="1.241"/>
        <path id="パス_5" data-name="パス 5" d="M25.848,3.777s-5.021,14.862-3.715,18.979,11.441.7,11.441.7" fill="none" stroke="#004f7e" stroke-linecap="round" stroke-miterlimit="10" stroke-width="1.314"/>
        <rect id="長方形_21" data-name="長方形 21" width="8.59" height="3.715" rx="1.858" transform="matrix(0.866, -0.5, 0.5, 0.866, 26.376, 6.851)" fill="#fff" stroke="#004f7e" stroke-linecap="round" stroke-miterlimit="10" stroke-width="1.314"/>
        <rect id="長方形_22" data-name="長方形 22" width="9.068" height="3.922" rx="1.858" transform="matrix(-0.744, -0.668, 0.668, -0.744, 21.103, 8.866)" fill="#fff" stroke="#004f7e" stroke-linecap="round" stroke-miterlimit="10" stroke-width="1.314"/>
      </g>
    </g>
  </g>
</svg>
